<?xml version="1.0" standalone="no"?>
<!DOCTYPE svg PUBLIC "-//W3C//DTD SVG 20010904//EN"
 "http://www.w3.org/TR/2001/REC-SVG-20010904/DTD/svg10.dtd">
<svg version="1.0" xmlns="http://www.w3.org/2000/svg"
 width="1194.000000pt" height="1194.000000pt" viewBox="0 0 1194.000000 1194.000000"
 preserveAspectRatio="xMidYMid meet">
<metadata>
Created by potrace 1.11, written by Peter Selinger 2001-2013
</metadata>
<g transform="translate(0.000000,1194.000000) scale(0.100000,-0.100000)"
fill="#000000" stroke="none">
<path d="M5698 11935 c-1 -1 -61 -6 -133 -9 -71 -4 -139 -9 -150 -11 -11 -2
-47 -7 -80 -10 -89 -8 -145 -15 -245 -29 -115 -17 -148 -23 -315 -57 -82 -17
-217 -48 -300 -70 -82 -22 -159 -42 -170 -44 -43 -10 -355 -114 -460 -155
-580 -221 -1135 -540 -1625 -936 -221 -178 -455 -398 -655 -614 -424 -458
-801 -1038 -1064 -1635 -44 -98 -70 -164 -126 -309 -26 -66 -123 -356 -130
-386 -2 -8 -17 -62 -33 -120 -24 -84 -52 -200 -78 -315 -4 -17 -12 -58 -19
-100 -4 -22 -9 -49 -12 -60 -8 -39 -24 -130 -29 -165 -2 -19 -6 -46 -9 -59 -9
-51 -21 -151 -30 -246 -3 -33 -8 -69 -10 -80 -26 -131 -26 -873 0 -1105 2 -19
6 -62 10 -95 3 -33 8 -71 10 -85 2 -14 6 -47 10 -75 4 -27 8 -61 10 -75 6 -43
25 -154 30 -180 3 -14 8 -43 11 -65 3 -22 10 -58 16 -80 6 -22 12 -53 15 -70
7 -44 88 -359 113 -440 74 -239 152 -451 245 -670 42 -98 205 -427 256 -515
17 -30 41 -73 54 -95 49 -88 182 -296 258 -405 77 -110 252 -343 279 -371 7
-8 33 -39 58 -69 25 -30 49 -60 55 -66 5 -6 42 -46 80 -90 126 -142 382 -393
519 -509 32 -28 63 -55 70 -60 41 -38 234 -189 333 -261 560 -409 1192 -719
1863 -913 120 -34 357 -93 445 -110 33 -6 94 -17 135 -25 41 -8 98 -18 125
-22 28 -3 59 -8 69 -10 80 -15 274 -36 476 -51 201 -15 848 -7 946 11 10 2 51
7 89 10 75 8 271 33 320 41 17 3 53 10 80 15 28 5 61 12 75 14 14 3 50 10 80
16 30 6 66 13 80 15 44 8 314 75 340 84 14 5 52 17 85 27 499 143 1082 409
1520 693 305 197 586 414 824 636 166 154 367 362 481 495 30 36 57 67 60 70
19 19 140 173 204 260 43 58 83 112 89 120 40 49 218 329 297 465 167 289 338
654 439 940 24 66 45 127 48 135 4 8 7 20 9 25 2 6 19 62 39 125 53 168 124
447 148 580 14 72 20 107 23 125 9 44 34 203 39 250 4 28 8 61 11 75 2 14 6
57 10 95 3 39 7 81 9 95 27 158 26 907 0 1090 -2 14 -6 59 -10 100 -3 41 -8
82 -10 90 -2 8 -7 36 -10 62 -21 183 -78 472 -141 716 -166 642 -474 1315
-853 1862 -494 714 -1128 1309 -1871 1753 -151 90 -527 283 -665 341 -49 21
-103 44 -120 51 -196 85 -619 223 -827 270 -35 8 -101 23 -148 34 -47 11 -96
22 -110 24 -214 40 -222 42 -300 52 -25 3 -56 8 -70 10 -14 3 -50 7 -80 10
-30 3 -65 7 -77 9 -12 3 -62 8 -110 11 -48 4 -104 9 -123 11 -42 6 -687 14
-692 9z"/>
</g>
</svg>
